<svg width="30" height="30" viewBox="0 0 30 30" fill="none" xmlns="http://www.w3.org/2000/svg">
<g clip-path="url(#clip0_36_51)">
<path d="M15 2.50003C9.75 2.50003 5 6.52503 5 12.75C5 16.725 8.0625 21.4 14.175 26.7875C14.65 27.2 15.3625 27.2 15.8375 26.7875C21.9375 21.4 25 16.725 25 12.75C25 6.52503 20.25 2.50003 15 2.50003ZM15 15C13.625 15 12.5 13.875 12.5 12.5C12.5 11.125 13.625 10 15 10C16.375 10 17.5 11.125 17.5 12.5C17.5 13.875 16.375 15 15 15Z" fill="url(#paint0_linear_36_51)"/>
</g>
<defs>
<linearGradient id="paint0_linear_36_51" x1="15" y1="2.50003" x2="15" y2="27.0969" gradientUnits="userSpaceOnUse">
<stop stop-color="#2C3352"/>
<stop offset="1" stop-color="#2C3352"/>
</linearGradient>
<clipPath id="clip0_36_51">
<rect width="30" height="30" fill="white"/>
</clipPath>
</defs>
</svg>
