<svg width="30" height="30" viewBox="0 0 30 30" fill="none" xmlns="http://www.w3.org/2000/svg">
<g clip-path="url(#clip0_36_43)">
<path d="M21.0997 14.0632L21.6948 13.4617C21.6948 13.4617 22.6094 12.6762 23.6522 13.0323C25.4677 13.6521 27.5651 12.981 29.0199 11.5245C29.4338 11.1106 29.9364 10.2803 29.9364 10.2803C29.994 10.2015 30.0142 10.1017 29.9904 10.0065L29.8778 9.54329C29.8567 9.45633 29.8008 9.38215 29.724 9.33639C29.647 9.29151 29.5546 9.27962 29.4694 9.30434L25.8962 10.2986C25.7634 10.3352 25.6215 10.2858 25.5409 10.175L23.8994 7.91368C23.8491 7.84501 23.828 7.75893 23.8399 7.67561L24.1704 5.27327C24.1878 5.14237 24.2812 5.03614 24.4085 5.00046L28.1823 3.95034C28.3525 3.9027 28.456 3.72692 28.4139 3.55389L28.2646 2.94692C28.2445 2.86085 28.1896 2.7876 28.1145 2.74184C28.1145 2.74184 27.8187 2.5459 27.6036 2.43516C25.4603 1.32827 22.7614 1.67163 20.9642 3.46969C19.6367 4.79719 19.1167 6.61547 19.3602 8.34211C19.5479 9.66961 19.46 10.3755 18.8869 10.9816C18.8347 11.0356 18.6699 11.2004 18.4154 11.4503L21.0997 14.0632Z" fill="#2C3352"/>
<path d="M12.3857 17.3096C8.38032 21.1905 4.0114 25.413 4.0114 25.413C3.86216 25.5558 3.77702 25.7526 3.77427 25.9587C3.77151 26.1637 3.85302 26.3624 3.99769 26.508L5.86905 28.3793C6.01554 28.5249 6.21329 28.6055 6.41931 28.6028C6.62532 28.6009 6.8212 28.5149 6.96312 28.3666L15.1269 20.1076L12.3857 17.3096Z" fill="#2C3352"/>
<path d="M29.3807 26.4475C29.5262 26.302 29.6068 26.1042 29.6041 25.8982C29.6023 25.6922 29.5162 25.4963 29.3679 25.3534L13.3251 9.74097L10.7497 12.3173L26.4144 28.306C26.5572 28.4553 26.7531 28.5404 26.9591 28.5432C27.1651 28.5459 27.3629 28.4644 27.5094 28.3189L29.3807 26.4475Z" fill="#2C3352"/>
<path d="M14.8942 1.91138C12.9625 1.15793 9.83872 1.04894 8.02963 2.85715C6.60504 4.28174 4.52133 6.36638 4.52133 6.36638C3.77883 7.10795 4.46825 7.84406 3.91981 8.39156C3.37143 8.93994 2.49522 8.39156 2.0018 8.88504L0.19272 10.6949C-0.0645654 10.9513 -0.0645654 11.3688 0.19272 11.6261L2.71319 14.1465C2.97047 14.4038 3.38795 14.4038 3.64518 14.1465L5.45426 12.3374C5.94868 11.844 5.3993 10.9678 5.94868 10.4203C6.68749 9.68056 7.49409 9.80601 7.96008 10.2711L8.8912 11.2022L9.90012 11.4677L12.4755 8.8923L12.1788 7.91449C11.3576 7.09236 11.2404 6.14109 11.755 5.62658C12.5515 4.83006 13.8671 3.67927 15.0994 3.1858C15.8848 2.87179 15.6477 2.08992 14.8942 1.91138ZM11.4006 6.06328C11.3969 6.06603 11.7439 5.63666 11.7503 5.63115L11.4006 6.06328Z" fill="#2C3352"/>
</g>
<defs>
<clipPath id="clip0_36_43">
<rect width="30" height="30" fill="white"/>
</clipPath>
</defs>
</svg>
