<svg width="30" height="30" viewBox="0 0 30 30" fill="none" xmlns="http://www.w3.org/2000/svg">
<path d="M23.7568 26H6.67568C4.51351 26 3 25.1837 3 24.2653V21H25.9189C26.5676 21 27 21.2041 27 21.5102V24.3673C27 25.2857 25.4865 26 23.7568 26Z" fill="#2C3352"/>
<path d="M22.2857 27.4286H7.71429C4.71429 27.4286 2.35715 25.0714 2.35715 22.0714V8.57144C2.35715 5.57144 4.71429 3.21429 7.71429 3.21429H22.5C25.5 3.21429 27.8571 5.57144 27.8571 8.57144V22.0714C27.6429 24.8572 25.2857 27.4286 22.2857 27.4286ZM7.71429 4.71429C5.57143 4.71429 3.85715 6.42858 3.85715 8.57144V22.0714C3.85715 24.2143 5.57143 25.9286 7.71429 25.9286H22.5C24.6429 25.9286 26.3571 24.2143 26.3571 22.0714V8.57144C26.3571 6.42858 24.6429 4.71429 22.5 4.71429H7.71429Z" fill="#2C3352"/>
<path d="M21.4286 7.50001V5.57144C21.4286 3.42858 20.1429 1.71429 18.4286 1.71429H11.3571C9.64286 1.71429 8.35715 3.42858 8.35715 5.57144V7.50001H21.4286Z" fill="#2C3352"/>
<path d="M21.4286 8.35715H7.71429V7.71429V5.57143C7.71429 3 9.42858 0.857147 11.5714 0.857147H18.6429C20.7857 0.857147 22.5 3 22.5 5.57143V8.14286L21.4286 8.35715ZM9.21429 6.64286H21V5.57143C21 3.85715 19.9286 2.57143 18.6429 2.57143H11.3572C10.0714 2.57143 9.00001 3.85715 9.00001 5.57143V6.64286H9.21429Z" fill="#2C3352"/>
<path d="M24.4286 8.35714H5.57144C5.14287 8.35714 4.71429 7.92857 4.71429 7.5C4.71429 7.07142 5.14287 6.64285 5.57144 6.64285H24.4286C24.8572 6.64285 25.2857 7.07142 25.2857 7.5C25.2857 7.92857 24.8572 8.35714 24.4286 8.35714Z" fill="#2C3352"/>
<path d="M11.1 15.0007L15.735 18.4614L14.8393 19.6614L10.2 16.2028L11.1 15.0007Z" fill="#2C3352"/>
<path d="M13.7186 18.755L21.39 10.6721L22.4764 11.705L14.805 19.7879L13.7186 18.755Z" fill="#2C3352"/>
</svg>
