<svg width="30" height="30" viewBox="0 0 30 30" fill="none" xmlns="http://www.w3.org/2000/svg">
<path d="M12.8906 3.51563H16.5234V2.57813L17.2266 2.4375V5.08594L16.9688 5.87109H17.9766L17.8125 5.26172V2.33203L18.9609 2.0625L14.707 0.515625L10.8281 2.05078C10.8398 2.05078 12.8906 2.56641 12.8906 2.56641V3.51563Z" fill="#2C3352"/>
<path d="M12.8906 4.03125C12.8906 5.05078 13.7227 5.89453 14.7422 5.89453C15.7617 5.89453 16.5938 5.05078 16.5938 4.01953C16.5938 3.97266 16.582 3.86719 16.582 3.86719H12.9141C12.9023 3.86719 12.8906 3.98438 12.8906 4.03125Z" fill="#2C3352"/>
<path d="M20.1445 17.3438H21.3984L20.25 8.50781C20.25 7.10156 19.0078 6.36328 17.7305 6.36328H16.3359L15.1172 9.01172V6.32812H14.4141V8.98828L13.207 6.375H9.25781V4.10156H8.90625V2.92969H8.88281C8.85938 2.34375 8.48438 2.10938 8.01563 2.10938C7.54688 2.10938 7.17188 2.34375 7.14844 2.92969V4.10156H6.91406V12.5156L10.9687 9.36328L10.9453 25.5469L11.4844 25.5703V28.0898C11.4844 28.793 12.1289 29.3789 12.832 29.3789C13.5352 29.3789 14.1797 28.8047 14.1797 28.0898V25.6641H14.7656V28.1016C14.7656 28.8047 15.4102 29.3906 16.1133 29.3906C16.8164 29.3906 17.4609 28.8164 17.4609 28.1016V25.582L17.8594 25.6055L17.8711 9.22266L18.293 9.19922L18.2812 18.0234C18.3047 18.5039 18.7148 18.9141 19.2188 18.9141C19.7344 18.9141 20.1328 18.5156 20.1328 17.9883C20.1328 17.9648 20.1445 17.3438 20.1445 17.3438Z" fill="#2C3352"/>
</svg>
