<svg width="30" height="30" viewBox="0 0 30 30" fill="none" xmlns="http://www.w3.org/2000/svg">
<path d="M27.0938 8.8125C27.0938 8.71875 27.1875 8.625 27.1875 8.53125C27.1875 8.53125 27.1875 8.53125 27.1875 8.4375C27.1875 8.4375 27.1875 8.4375 27.1875 8.34375C27.1875 8.25 27.1875 8.15625 27.1875 8.0625C27.1875 8.0625 27.1875 8.0625 27.1875 7.96875C27.1875 7.875 27.0938 7.78125 27.0938 7.6875C27 7.59375 27 7.59375 26.9062 7.5L16.5938 0.9375C16.3125 0.75 15.8438 0.75 15.5625 0.9375L3.375 9.375L3.28125 9.46875C3.28125 9.46875 3.28125 9.46875 3.1875 9.46875C3.09375 9.5625 3.09375 9.65625 3 9.75C3 9.75 3 9.75 3 9.84375C2.8125 10.125 2.8125 10.2188 2.8125 10.3125V15.9375V21.5625C2.8125 21.8438 3 22.2187 3.28125 22.3125L13.5938 28.875C13.7812 28.9687 13.9688 29.0625 14.0625 29.0625C14.25 29.0625 14.4375 28.9687 14.625 28.875L26.8125 20.4375C27 20.25 27.1875 20.0625 27.1875 19.7812C27.1875 19.5 27.0938 19.2187 26.9062 19.0312C26.0625 18.1875 25.875 16.9688 26.4375 15.8437L27.0938 14.4375C27.0938 14.3437 27.1875 14.25 27.1875 14.1562V14.0625C27.1875 13.9688 27.1875 13.7812 27.0938 13.6875V13.5938C27.0938 13.5 27 13.4062 26.9062 13.3125C26.0625 12.4687 25.875 11.25 26.4375 10.125L27.0938 8.8125ZM24.9375 13.875L14.0625 21.375L4.6875 15.4688V12.0937L13.5938 17.7188C13.7812 17.8125 13.9688 17.9062 14.0625 17.9062C14.25 17.9062 14.4375 17.8125 14.625 17.7188L24.2812 11.0625C24.1875 12 24.375 12.9375 24.9375 13.875ZM14.0625 27L4.6875 21.0938V17.7188L13.5938 23.3438C13.7812 23.4375 13.9688 23.5312 14.0625 23.5312C14.25 23.5312 14.4375 23.4375 14.625 23.3438L24.2812 16.6875C24.1875 17.7187 24.375 18.75 24.9375 19.5938L14.0625 27Z" fill="#2C3352"/>
</svg>
